<?xml version="1.0" encoding="UTF-8"?>
<svg xmlns="http://www.w3.org/2000/svg" xmlns:xlink="http://www.w3.org/1999/xlink" width="375pt" height="374.999991pt" viewBox="0 0 375 374.999991" version="1.2">
<defs>
<clipPath id="clip1">
  <path d="M 3 4.402344 L 371 4.402344 L 371 370 L 3 370 Z M 3 4.402344 "/>
</clipPath>
</defs>
<g id="surface1">
<rect x="0" y="0" width="375" height="374.999991" style="fill:rgb(100%,100%,100%);fill-opacity:1;stroke:none;"/>
<g clip-path="url(#clip1)" clip-rule="nonzero">
<path style=" stroke:none;fill-rule:nonzero;fill:rgb(0%,50.19989%,21.569824%);fill-opacity:1;" d="M 158.875 74.492188 C 160.542969 75.359375 162.289062 76.019531 164.113281 76.464844 C 168.695312 77.542969 173.363281 78.289062 177.914062 79.457031 C 186.675781 81.402344 195.105469 84.300781 203.207031 88.15625 C 207.007812 90.050781 210.898438 91.734375 214.882812 93.210938 C 221.308594 95.546875 227.460938 98.460938 233.335938 101.949219 C 239.214844 105.4375 244.71875 109.441406 249.84375 113.964844 C 251.207031 115.273438 252.734375 116.351562 254.421875 117.203125 C 256.113281 118.054688 257.886719 118.640625 259.753906 118.957031 C 261.128906 119.195312 262.535156 119.375 263.941406 119.644531 C 274.390625 121.617188 277.59375 134.386719 271.90625 141.953125 C 265.53125 150.414062 256.308594 149.875 251.820312 140.457031 C 250.683594 137.871094 249.867188 135.191406 249.367188 132.414062 C 248.992188 130.570312 248.449219 128.78125 247.738281 127.039062 C 247.027344 125.300781 246.15625 123.640625 245.132812 122.066406 C 244.109375 120.488281 242.945312 119.023438 241.644531 117.664062 C 240.339844 116.308594 238.925781 115.082031 237.390625 113.992188 C 233.402344 110.679688 229.113281 107.820312 224.519531 105.410156 C 218.113281 102.421875 211.859375 99.101562 205.304688 96.441406 C 192.601562 91.511719 179.632812 87.445312 166.390625 84.242188 C 154.335938 81.773438 142.171875 80.078125 129.902344 79.15625 C 125.558594 78.679688 123.015625 81.519531 123.046875 86.066406 C 123.238281 92.722656 124.625 99.121094 127.207031 105.261719 C 127.714844 106.546875 128.464844 107.773438 129.0625 109.03125 C 134.601562 120.542969 135.050781 120.8125 147.351562 117.730469 C 161.269531 114.261719 175.398438 114.742188 189.46875 115.816406 C 197.488281 116.808594 205.101562 119.128906 212.308594 122.785156 C 216.132812 124.652344 220.125 126.050781 224.28125 126.972656 C 232.601562 128.527344 236.523438 135.164062 235.953125 143.6875 C 235.886719 144.875 235.59375 146.007812 235.074219 147.078125 C 234.558594 148.152344 233.851562 149.082031 232.960938 149.875 C 232.421875 150.328125 231.851562 150.734375 231.25 151.101562 C 230.648438 151.46875 230.023438 151.792969 229.375 152.066406 C 228.726562 152.34375 228.0625 152.570312 227.378906 152.746094 C 226.699219 152.925781 226.007812 153.054688 225.304688 153.128906 C 224.605469 153.207031 223.902344 153.230469 223.199219 153.207031 C 222.496094 153.179688 221.796875 153.101562 221.105469 152.972656 C 220.410156 152.84375 219.730469 152.664062 219.066406 152.4375 C 218.398438 152.207031 217.753906 151.933594 217.125 151.609375 C 215.679688 150.761719 214.476562 149.648438 213.515625 148.277344 C 212.554688 146.902344 211.921875 145.394531 211.617188 143.746094 C 211.019531 141.023438 211.109375 138.125 210.78125 135.34375 C 210.597656 133.917969 210.113281 132.605469 209.316406 131.40625 C 208.523438 130.210938 207.503906 129.25 206.261719 128.527344 C 203.058594 126.46875 199.65625 124.832031 196.050781 123.613281 C 192.441406 122.390625 188.742188 121.628906 184.949219 121.320312 C 174.558594 120.21875 164.261719 120.785156 154.058594 123.023438 C 151.359375 123.824219 148.761719 124.878906 146.273438 126.191406 C 145.898438 126.46875 145.582031 126.796875 145.328125 127.1875 C 145.070312 127.578125 144.894531 128 144.796875 128.457031 C 144.695312 128.910156 144.679688 129.367188 144.75 129.828125 C 144.820312 130.289062 144.96875 130.722656 145.195312 131.128906 C 145.640625 131.957031 146.160156 132.734375 146.753906 133.460938 C 150.496094 137.046875 154.175781 140.664062 158.066406 144.042969 C 159.082031 145.039062 160.183594 145.917969 161.375 146.6875 C 162.566406 147.457031 163.824219 148.097656 165.148438 148.613281 C 166.46875 149.125 167.828125 149.503906 169.226562 149.742188 C 170.628906 149.976562 172.035156 150.074219 173.453125 150.023438 C 174.875 149.945312 176.28125 150.046875 177.671875 150.332031 C 179.066406 150.613281 180.398438 151.070312 181.675781 151.699219 C 182.949219 152.328125 184.121094 153.109375 185.195312 154.039062 C 186.265625 154.972656 187.203125 156.027344 188 157.203125 C 188.601562 157.933594 189.101562 158.730469 189.496094 159.589844 C 189.886719 160.453125 190.164062 161.347656 190.324219 162.28125 C 190.484375 163.214844 190.523438 164.152344 190.4375 165.097656 C 190.355469 166.039062 190.152344 166.957031 189.828125 167.847656 C 189.519531 168.871094 189.066406 169.824219 188.472656 170.707031 C 187.875 171.59375 187.15625 172.371094 186.324219 173.039062 C 185.488281 173.707031 184.574219 174.234375 183.578125 174.625 C 182.585938 175.011719 181.554688 175.246094 180.488281 175.320312 C 179.320312 175.527344 178.144531 175.558594 176.964844 175.421875 C 175.785156 175.28125 174.652344 174.976562 173.558594 174.507812 C 172.46875 174.039062 171.46875 173.421875 170.558594 172.660156 C 169.652344 171.898438 168.867188 171.019531 168.214844 170.03125 C 167.015625 168.007812 166.109375 165.867188 165.492188 163.601562 C 164.894531 161.835938 164.0625 160.191406 162.992188 158.664062 C 161.925781 157.136719 160.660156 155.792969 159.207031 154.628906 C 152.171875 148.378906 145.226562 142.042969 138.433594 135.523438 C 135.625 132.996094 133.199219 130.148438 131.15625 126.972656 C 125.171875 116.863281 119.183594 106.667969 117.269531 94.796875 C 116.582031 90.640625 115.414062 86.542969 114.277344 82.445312 C 114.121094 81.753906 113.867188 81.097656 113.515625 80.480469 C 113.164062 79.863281 112.730469 79.308594 112.210938 78.820312 C 111.695312 78.335938 111.117188 77.933594 110.476562 77.617188 C 109.839844 77.304688 109.171875 77.089844 108.46875 76.976562 C 103.335938 75.949219 98.1875 75.859375 93.023438 76.707031 C 92.621094 76.789062 92.226562 76.90625 91.84375 77.058594 C 91.460938 77.210938 91.097656 77.394531 90.746094 77.613281 C 90.398438 77.832031 90.070312 78.078125 89.765625 78.351562 C 89.460938 78.628906 89.179688 78.929688 88.929688 79.253906 C 88.675781 79.578125 88.457031 79.925781 88.265625 80.289062 C 88.074219 80.652344 87.917969 81.03125 87.792969 81.425781 C 87.671875 81.816406 87.582031 82.214844 87.53125 82.625 C 87.480469 83.03125 87.464844 83.441406 87.484375 83.851562 C 87.457031 84.3125 87.457031 84.769531 87.484375 85.226562 C 91.644531 104.066406 96.105469 122.785156 104.128906 140.488281 C 111.066406 155.507812 119.976562 169.253906 130.859375 181.722656 C 136.066406 187.703125 140.347656 194.640625 146.78125 199.664062 C 148.28125 200.828125 149.597656 202.175781 151.0625 203.339844 C 151.96875 204.085938 152.960938 204.695312 154.039062 205.160156 C 155.117188 205.628906 156.238281 205.9375 157.402344 206.085938 C 158.566406 206.238281 159.730469 206.226562 160.890625 206.046875 C 162.054688 205.871094 163.167969 205.535156 164.234375 205.042969 C 167.226562 203.789062 170.222656 202.054688 173.214844 200.828125 C 182.703125 196.703125 192.164062 192.484375 201.769531 188.6875 C 207.917969 186.257812 214.238281 184.417969 220.730469 183.171875 C 227.222656 181.925781 233.773438 181.292969 240.386719 181.273438 C 241.671875 181.335938 242.945312 181.25 244.210938 181.015625 C 245.476562 180.78125 246.695312 180.40625 247.875 179.886719 C 249.050781 179.367188 250.152344 178.71875 251.179688 177.945312 C 252.203125 177.167969 253.125 176.285156 253.945312 175.292969 C 258.285156 170.359375 263.882812 170.417969 269.210938 174.066406 C 270.621094 174.941406 271.851562 176.019531 272.90625 177.300781 C 273.964844 178.578125 274.785156 179.992188 275.378906 181.542969 C 275.53125 181.867188 275.667969 182.199219 275.785156 182.542969 C 275.902344 182.882812 275.996094 183.230469 276.074219 183.582031 C 276.148438 183.933594 276.207031 184.289062 276.242188 184.644531 C 276.277344 185.003906 276.292969 185.363281 276.289062 185.722656 C 276.28125 186.085938 276.257812 186.441406 276.210938 186.800781 C 276.164062 187.15625 276.097656 187.511719 276.007812 187.859375 C 275.921875 188.210938 275.816406 188.554688 275.6875 188.890625 C 275.5625 189.226562 275.417969 189.554688 275.25 189.878906 C 275.085938 190.199219 274.90625 190.507812 274.703125 190.808594 C 274.503906 191.105469 274.289062 191.394531 274.054688 191.667969 C 273.820312 191.945312 273.574219 192.203125 273.3125 192.453125 C 273.046875 192.699219 272.773438 192.929688 272.484375 193.144531 C 272.191406 193.359375 271.890625 193.554688 271.582031 193.734375 C 271.269531 193.917969 270.945312 194.078125 270.617188 194.222656 C 270.285156 194.363281 269.945312 194.488281 269.601562 194.59375 C 269.257812 194.699219 268.90625 194.785156 268.550781 194.847656 C 266.738281 195.382812 264.882812 195.625 262.992188 195.574219 C 261.097656 195.523438 259.261719 195.179688 257.476562 194.550781 C 248.398438 191.816406 239.121094 190.507812 229.640625 190.632812 C 227.765625 190.585938 225.902344 190.675781 224.042969 190.902344 C 219.878906 191.410156 216.019531 193.890625 216.078125 195.746094 C 216.199219 197.175781 216.628906 198.507812 217.371094 199.738281 C 218.113281 200.96875 219.089844 201.96875 220.300781 202.742188 C 224.402344 205.882812 228.621094 208.722656 232.960938 211.714844 C 233.277344 211.980469 233.617188 212.210938 233.984375 212.40625 C 234.347656 212.605469 234.730469 212.757812 235.128906 212.871094 C 235.527344 212.984375 235.929688 213.054688 236.34375 213.082031 C 236.757812 213.109375 237.167969 213.09375 237.578125 213.03125 C 237.988281 212.972656 238.386719 212.867188 238.773438 212.722656 C 239.164062 212.574219 239.53125 212.390625 239.878906 212.164062 C 240.226562 211.941406 240.546875 211.683594 240.839844 211.390625 C 241.128906 211.097656 241.390625 210.773438 241.613281 210.425781 C 241.910156 210.066406 242.226562 209.726562 242.570312 209.410156 C 247.867188 204.925781 252.207031 204.566406 257.894531 208.125 C 258.566406 208.496094 259.199219 208.921875 259.792969 209.402344 C 260.390625 209.882812 260.941406 210.40625 261.449219 210.980469 C 261.957031 211.550781 262.414062 212.164062 262.816406 212.8125 C 263.21875 213.464844 263.5625 214.144531 263.851562 214.851562 C 264.140625 215.5625 264.367188 216.289062 264.53125 217.035156 C 264.695312 217.78125 264.792969 218.539062 264.828125 219.300781 C 264.867188 220.066406 264.835938 220.828125 264.742188 221.585938 C 264.648438 222.34375 264.492188 223.089844 264.273438 223.824219 C 263.777344 225.164062 262.980469 226.289062 261.878906 227.203125 C 261.058594 227.886719 260.171875 228.46875 259.214844 228.941406 C 258.261719 229.417969 257.261719 229.773438 256.222656 230.011719 C 255.179688 230.253906 254.125 230.367188 253.058594 230.355469 C 251.992188 230.347656 250.941406 230.210938 249.902344 229.953125 C 248.027344 229.640625 246.242188 229.058594 244.542969 228.210938 C 242.84375 227.359375 241.308594 226.273438 239.9375 224.960938 C 235.058594 219.667969 228.769531 216.4375 222.933594 212.519531 C 218.28125 209.308594 213.941406 205.722656 209.914062 201.753906 C 209.46875 201.285156 208.988281 200.855469 208.476562 200.460938 C 207.964844 200.066406 207.421875 199.714844 206.855469 199.40625 C 206.289062 199.097656 205.699219 198.835938 205.089844 198.617188 C 204.480469 198.398438 203.859375 198.230469 203.222656 198.109375 C 202.589844 197.992188 201.949219 197.921875 201.300781 197.902344 C 200.65625 197.882812 200.011719 197.910156 199.367188 197.992188 C 198.726562 198.074219 198.097656 198.203125 197.476562 198.382812 C 196.855469 198.5625 196.25 198.789062 195.664062 199.0625 C 187.3125 202.234375 178.722656 205.042969 171.898438 211.023438 C 171.667969 211.210938 171.460938 211.417969 171.285156 211.652344 C 171.105469 211.886719 170.957031 212.136719 170.835938 212.410156 C 170.71875 212.679688 170.636719 212.957031 170.585938 213.25 C 170.535156 213.539062 170.519531 213.832031 170.539062 214.125 C 170.5625 214.417969 170.617188 214.707031 170.707031 214.988281 C 170.796875 215.265625 170.917969 215.53125 171.074219 215.785156 C 171.230469 216.035156 171.410156 216.261719 171.621094 216.46875 C 171.832031 216.675781 172.0625 216.855469 172.316406 217.003906 C 173.027344 217.609375 173.789062 218.144531 174.589844 218.621094 C 185.402344 224.402344 196.617188 229.246094 208.238281 233.152344 C 227.824219 238.667969 247.78125 241.964844 268.105469 243.050781 C 269.519531 243.117188 270.925781 243.039062 272.324219 242.8125 C 272.910156 242.773438 273.480469 242.664062 274.039062 242.472656 C 274.59375 242.28125 275.113281 242.019531 275.601562 241.6875 C 276.085938 241.355469 276.515625 240.964844 276.894531 240.515625 C 277.273438 240.066406 277.585938 239.578125 277.832031 239.042969 C 278.226562 238.1875 278.566406 237.3125 278.851562 236.410156 C 283.789062 219.605469 294.265625 206.511719 306.957031 194.96875 C 315.546875 186.84375 325.035156 179.957031 335.425781 174.304688 C 337.550781 173.257812 339.449219 171.894531 341.121094 170.214844 C 342.792969 168.535156 344.148438 166.628906 345.183594 164.496094 C 345.976562 162.78125 347.015625 161.222656 348.289062 159.824219 C 349.566406 158.425781 351.027344 157.253906 352.664062 156.304688 C 353.59375 155.769531 354.582031 155.382812 355.628906 155.144531 C 356.675781 154.90625 357.730469 154.832031 358.800781 154.917969 C 359.871094 155.003906 360.902344 155.246094 361.898438 155.644531 C 362.894531 156.046875 363.808594 156.582031 364.640625 157.261719 C 365.753906 158.125 366.726562 159.121094 367.558594 160.257812 C 368.394531 161.394531 369.050781 162.625 369.535156 163.949219 C 370.019531 165.269531 370.3125 166.632812 370.410156 168.039062 C 370.507812 169.445312 370.410156 170.835938 370.117188 172.210938 C 370.003906 172.914062 369.824219 173.59375 369.578125 174.261719 C 369.335938 174.925781 369.03125 175.5625 368.664062 176.171875 C 368.296875 176.777344 367.878906 177.347656 367.402344 177.871094 C 366.929688 178.398438 366.40625 178.878906 365.839844 179.304688 C 365.273438 179.734375 364.671875 180.101562 364.035156 180.414062 C 363.398438 180.726562 362.738281 180.976562 362.054688 181.164062 C 361.367188 181.351562 360.671875 181.472656 359.964844 181.523438 C 359.257812 181.578125 358.550781 181.5625 357.84375 181.480469 C 354.613281 180.886719 351.429688 180.097656 348.296875 179.121094 C 346.921875 178.738281 345.523438 178.597656 344.101562 178.695312 C 342.679688 178.792969 341.3125 179.125 340.003906 179.6875 C 336.953125 180.949219 334.03125 182.453125 331.234375 184.203125 C 323.636719 188.972656 316.636719 194.492188 310.226562 200.761719 C 303.816406 207.035156 298.148438 213.914062 293.21875 221.402344 C 290.367188 225.789062 288.460938 230.550781 287.5 235.695312 C 287.410156 236.097656 287.363281 236.503906 287.367188 236.917969 C 287.367188 237.328125 287.417969 237.738281 287.511719 238.136719 C 287.605469 238.539062 287.746094 238.925781 287.925781 239.296875 C 288.109375 239.664062 288.332031 240.011719 288.59375 240.332031 C 288.855469 240.648438 289.148438 240.9375 289.472656 241.1875 C 289.800781 241.441406 290.148438 241.65625 290.523438 241.828125 C 290.898438 242.003906 291.289062 242.132812 291.691406 242.214844 C 292.097656 242.300781 292.503906 242.339844 292.917969 242.332031 C 297.140625 242.480469 301.390625 242.332031 305.609375 242.332031 C 308.453125 242.332031 311.269531 242.332031 314.082031 242.332031 C 317.882812 242.5 321.601562 242.03125 325.242188 240.929688 C 328.882812 239.828125 332.238281 238.152344 335.304688 235.902344 C 343.65625 229.085938 356.976562 234.527344 359.851562 245.441406 C 359.957031 245.78125 360.046875 246.125 360.113281 246.472656 C 360.179688 246.824219 360.230469 247.175781 360.253906 247.53125 C 360.28125 247.882812 360.289062 248.238281 360.273438 248.59375 C 360.261719 248.949219 360.226562 249.304688 360.171875 249.65625 C 360.113281 250.007812 360.039062 250.351562 359.941406 250.695312 C 359.847656 251.039062 359.730469 251.375 359.597656 251.703125 C 359.460938 252.03125 359.308594 252.351562 359.136719 252.664062 C 358.964844 252.976562 358.773438 253.273438 358.566406 253.566406 C 358.359375 253.855469 358.136719 254.128906 357.898438 254.394531 C 357.660156 254.65625 357.40625 254.90625 357.136719 255.140625 C 356.871094 255.375 356.589844 255.589844 356.296875 255.792969 C 356 255.992188 355.699219 256.175781 355.382812 256.34375 C 355.066406 256.507812 354.746094 256.65625 354.414062 256.785156 C 354.082031 256.914062 353.742188 257.023438 353.398438 257.113281 C 353.054688 257.199219 352.703125 257.269531 352.351562 257.320312 C 352 257.367188 351.644531 257.394531 351.289062 257.402344 C 349.414062 257.519531 347.546875 257.4375 345.691406 257.164062 C 343.832031 256.8125 342.035156 256.257812 340.304688 255.488281 C 329.078125 250.527344 317.34375 251.394531 305.582031 252.320312 C 305.125 252.402344 304.675781 252.511719 304.234375 252.648438 C 303.890625 252.703125 303.558594 252.792969 303.234375 252.921875 C 302.910156 253.046875 302.605469 253.207031 302.316406 253.398438 C 302.027344 253.59375 301.761719 253.8125 301.519531 254.0625 C 301.277344 254.3125 301.066406 254.582031 300.882812 254.878906 C 300.699219 255.171875 300.550781 255.484375 300.433594 255.8125 C 300.316406 256.136719 300.238281 256.472656 300.191406 256.816406 C 300.148438 257.164062 300.140625 257.507812 300.171875 257.851562 C 300.203125 258.199219 300.269531 258.535156 300.371094 258.867188 C 300.964844 260.910156 301.738281 262.882812 302.6875 264.785156 C 303.640625 266.6875 304.753906 268.492188 306.03125 270.191406 C 307.3125 271.894531 308.734375 273.464844 310.296875 274.910156 C 311.859375 276.351562 313.539062 277.644531 315.339844 278.78125 C 319.789062 281.433594 324.378906 283.816406 329.109375 285.929688 C 330.835938 286.722656 332.648438 287.183594 334.546875 287.3125 C 336.445312 287.441406 338.304688 287.230469 340.125 286.675781 C 341.949219 286.167969 343.6875 285.421875 345.511719 285.003906 C 346.164062 284.820312 346.828125 284.675781 347.5 284.570312 C 348.167969 284.46875 348.84375 284.40625 349.523438 284.382812 C 350.199219 284.359375 350.878906 284.378906 351.554688 284.4375 C 352.230469 284.496094 352.902344 284.59375 353.566406 284.734375 C 354.230469 284.875 354.882812 285.054688 355.527344 285.269531 C 356.167969 285.488281 356.796875 285.746094 357.410156 286.039062 C 358.019531 286.332031 358.613281 286.660156 359.183594 287.027344 C 359.757812 287.390625 360.304688 287.789062 360.828125 288.21875 C 361.355469 288.652344 361.851562 289.113281 362.320312 289.601562 C 362.789062 290.09375 363.226562 290.609375 363.632812 291.152344 C 364.039062 291.695312 364.410156 292.261719 364.75 292.851562 C 365.085938 293.4375 365.390625 294.042969 365.652344 294.667969 C 365.917969 295.292969 366.144531 295.929688 366.335938 296.582031 C 366.523438 297.234375 366.671875 297.894531 366.78125 298.5625 C 366.886719 299.234375 366.957031 299.90625 366.984375 300.585938 C 367.011719 301.261719 367 301.9375 366.945312 302.613281 C 366.933594 303.445312 366.8125 304.261719 366.585938 305.058594 C 366.359375 305.859375 366.035156 306.617188 365.609375 307.328125 C 365.183594 308.042969 364.671875 308.691406 364.078125 309.269531 C 363.480469 309.847656 362.820312 310.34375 362.09375 310.75 C 360.773438 311.527344 359.378906 312.148438 357.914062 312.609375 C 356.449219 313.066406 354.949219 313.355469 353.417969 313.46875 C 351.886719 313.582031 350.363281 313.523438 348.84375 313.285156 C 347.328125 313.046875 345.855469 312.640625 344.433594 312.0625 C 342.828125 311.550781 341.40625 310.71875 340.175781 309.566406 C 338.941406 308.414062 338.015625 307.054688 337.398438 305.484375 C 334.945312 298.757812 329.675781 295.050781 323.808594 291.851562 C 320.488281 290.054688 317.132812 288.382812 313.902344 286.46875 C 310.574219 284.640625 307.582031 282.371094 304.929688 279.65625 C 302.28125 276.941406 300.082031 273.898438 298.335938 270.53125 C 296.660156 267.179688 294.773438 263.921875 292.976562 260.601562 C 292.460938 259.53125 291.804688 258.554688 291.007812 257.675781 C 290.207031 256.792969 289.304688 256.039062 288.289062 255.417969 C 287.277344 254.796875 286.195312 254.328125 285.050781 254.015625 C 283.902344 253.699219 282.734375 253.554688 281.542969 253.574219 C 271.660156 253.296875 261.824219 252.480469 252.03125 251.125 C 234.199219 249.273438 216.757812 245.585938 199.707031 240.058594 C 191.722656 237.222656 183.917969 233.953125 176.296875 230.253906 C 172.496094 228.457031 168.605469 226.8125 164.683594 225.257812 C 162.558594 224.390625 159.984375 226.574219 159.984375 229.027344 C 159.910156 229.964844 159.910156 230.898438 159.984375 231.835938 C 160.386719 235.105469 161.0625 238.3125 162.019531 241.464844 C 164.535156 248.59375 167.898438 255.296875 172.109375 261.574219 C 176.324219 267.851562 181.25 273.507812 186.894531 278.542969 C 187.339844 278.941406 187.835938 279.265625 188.375 279.515625 C 188.917969 279.765625 189.488281 279.929688 190.078125 280.007812 C 190.671875 280.089844 191.261719 280.082031 191.851562 279.984375 C 192.441406 279.886719 193.003906 279.707031 193.539062 279.441406 C 202.234375 275.621094 211.3125 273.328125 220.777344 272.5625 C 224.027344 272.0625 227.171875 271.1875 230.207031 269.933594 C 232.453125 269.183594 234.488281 267.957031 236.734375 267.242188 C 237.179688 267.097656 237.632812 266.980469 238.09375 266.886719 C 238.554688 266.792969 239.019531 266.726562 239.488281 266.683594 C 239.953125 266.644531 240.421875 266.625 240.890625 266.632812 C 241.363281 266.644531 241.828125 266.675781 242.292969 266.738281 C 242.761719 266.796875 243.222656 266.882812 243.679688 266.992188 C 244.132812 267.101562 244.582031 267.238281 245.023438 267.394531 C 245.46875 267.554688 245.898438 267.738281 246.320312 267.945312 C 246.742188 268.148438 247.152344 268.378906 247.546875 268.628906 C 247.945312 268.878906 248.328125 269.152344 248.695312 269.445312 C 249.0625 269.734375 249.410156 270.046875 249.746094 270.378906 C 250.078125 270.707031 250.390625 271.054688 250.6875 271.421875 C 250.980469 271.785156 251.253906 272.164062 251.507812 272.5625 C 251.761719 272.957031 251.996094 273.363281 252.203125 273.78125 C 252.414062 274.203125 252.597656 274.632812 252.757812 275.074219 C 252.921875 275.511719 253.058594 275.960938 253.171875 276.417969 C 253.285156 276.871094 253.375 277.332031 253.4375 277.796875 C 253.765625 280.59375 253.707031 283.386719 253.257812 286.167969 C 253.210938 286.488281 253.144531 286.800781 253.0625 287.113281 C 252.980469 287.425781 252.878906 287.730469 252.761719 288.03125 C 252.644531 288.328125 252.511719 288.621094 252.363281 288.90625 C 252.210938 289.191406 252.046875 289.46875 251.867188 289.734375 C 251.683594 290 251.488281 290.253906 251.277344 290.5 C 251.070312 290.742188 250.847656 290.972656 250.609375 291.191406 C 250.375 291.414062 250.125 291.617188 249.867188 291.808594 C 249.605469 292 249.339844 292.175781 249.058594 292.335938 C 248.78125 292.496094 248.492188 292.640625 248.195312 292.769531 C 247.902344 292.898438 247.597656 293.007812 247.292969 293.101562 C 246.984375 293.195312 246.671875 293.273438 246.355469 293.332031 C 246.039062 293.390625 245.71875 293.433594 245.398438 293.453125 C 245.074219 293.476562 244.753906 293.484375 244.433594 293.46875 C 244.109375 293.457031 243.789062 293.425781 243.472656 293.375 C 243.152344 293.324219 242.839844 293.257812 242.527344 293.171875 C 242.214844 293.089844 241.910156 292.984375 241.613281 292.867188 C 239.332031 292.046875 237.335938 290.78125 235.625 289.070312 C 233.351562 286.738281 231.703125 283.804688 229.640625 281.355469 C 228.71875 280.242188 227.601562 279.382812 226.289062 278.78125 C 224.976562 278.179688 223.601562 277.890625 222.15625 277.914062 C 218.367188 277.914062 214.648438 278.417969 211 279.433594 C 207.351562 280.449219 203.90625 281.9375 200.664062 283.894531 C 200.367188 284.074219 200.089844 284.28125 199.839844 284.523438 C 199.589844 284.761719 199.371094 285.027344 199.179688 285.316406 C 198.988281 285.605469 198.832031 285.910156 198.710938 286.238281 C 198.589844 286.5625 198.503906 286.894531 198.457031 287.238281 C 198.414062 287.582031 198.40625 287.925781 198.4375 288.273438 C 198.46875 288.617188 198.539062 288.953125 198.644531 289.285156 C 198.753906 289.613281 198.898438 289.925781 199.078125 290.222656 C 199.253906 290.519531 199.464844 290.792969 199.707031 291.042969 C 202.703125 294.023438 205.945312 296.703125 209.433594 299.085938 C 220.03125 305.277344 231.128906 310.390625 242.71875 314.425781 C 244.246094 315.074219 245.820312 315.554688 247.445312 315.875 C 249.070312 316.195312 250.710938 316.34375 252.367188 316.324219 C 254.023438 316.304688 255.660156 316.113281 257.277344 315.753906 C 258.894531 315.394531 260.457031 314.871094 261.96875 314.1875 C 262.847656 313.800781 263.761719 313.542969 264.714844 313.410156 C 265.664062 313.28125 266.617188 313.28125 267.566406 313.414062 C 268.519531 313.542969 269.433594 313.804688 270.3125 314.1875 C 271.191406 314.574219 272.003906 315.070312 272.742188 315.683594 C 274.339844 316.75 275.65625 318.085938 276.695312 319.699219 C 277.738281 321.308594 278.414062 323.058594 278.730469 324.953125 C 278.953125 326.234375 279.039062 327.523438 278.992188 328.824219 C 278.941406 330.125 278.757812 331.40625 278.441406 332.667969 C 278.125 333.929688 277.679688 335.144531 277.109375 336.3125 C 276.539062 337.480469 275.851562 338.578125 275.046875 339.605469 C 274.511719 340.246094 273.902344 340.800781 273.210938 341.273438 C 272.519531 341.746094 271.777344 342.113281 270.984375 342.375 C 270.191406 342.640625 269.375 342.792969 268.542969 342.828125 C 267.707031 342.863281 266.882812 342.785156 266.066406 342.59375 C 263.980469 342.101562 262.035156 341.277344 260.230469 340.117188 C 258.429688 338.957031 256.871094 337.53125 255.5625 335.835938 C 252.808594 332.289062 249.582031 329.238281 245.882812 326.6875 C 242.183594 324.136719 238.1875 322.203125 233.890625 320.886719 C 220.59375 316 207.933594 309.820312 195.902344 302.347656 C 195.648438 302.210938 195.382812 302.109375 195.101562 302.042969 C 194.820312 301.976562 194.535156 301.945312 194.246094 301.957031 C 193.957031 301.964844 193.675781 302.011719 193.398438 302.09375 C 193.125 302.175781 192.863281 302.292969 192.617188 302.445312 C 192.371094 302.597656 192.148438 302.777344 191.949219 302.988281 C 191.753906 303.195312 191.585938 303.429688 191.449219 303.679688 C 191.3125 303.933594 191.210938 304.203125 191.144531 304.484375 C 191.074219 304.761719 191.046875 305.046875 191.054688 305.335938 C 190.933594 306.742188 190.933594 308.148438 191.054688 309.550781 C 191.554688 312.808594 192.234375 316.027344 193.089844 319.210938 C 193.988281 322.199219 195.246094 325.398438 196.382812 328.511719 C 197.164062 330.738281 198.238281 332.820312 199.601562 334.75 C 200.964844 336.679688 202.566406 338.390625 204.40625 339.871094 C 206.277344 341.324219 207.898438 343.015625 209.269531 344.945312 C 210.640625 346.875 211.703125 348.960938 212.457031 351.207031 C 212.824219 352.203125 213.082031 353.226562 213.238281 354.277344 C 213.390625 355.332031 213.433594 356.386719 213.367188 357.445312 C 213.300781 358.507812 213.125 359.550781 212.839844 360.574219 C 212.554688 361.597656 212.167969 362.582031 211.679688 363.523438 C 211.40625 364.054688 211.09375 364.5625 210.742188 365.042969 C 210.390625 365.523438 210 365.972656 209.574219 366.390625 C 209.148438 366.808594 208.691406 367.1875 208.203125 367.53125 C 207.714844 367.875 207.203125 368.179688 206.667969 368.441406 C 206.132812 368.699219 205.578125 368.917969 205.007812 369.089844 C 204.433594 369.261719 203.851562 369.386719 203.261719 369.464844 C 202.667969 369.542969 202.074219 369.570312 201.480469 369.554688 C 200.882812 369.535156 200.292969 369.46875 199.707031 369.355469 C 199.207031 369.3125 198.714844 369.242188 198.226562 369.140625 C 197.738281 369.039062 197.257812 368.910156 196.785156 368.753906 C 196.3125 368.59375 195.851562 368.410156 195.398438 368.199219 C 194.949219 367.984375 194.511719 367.746094 194.089844 367.480469 C 193.664062 367.21875 193.261719 366.929688 192.871094 366.617188 C 192.484375 366.304688 192.113281 365.96875 191.765625 365.613281 C 191.417969 365.257812 191.089844 364.882812 190.785156 364.488281 C 190.484375 364.089844 190.203125 363.679688 189.949219 363.25 C 189.691406 362.824219 189.464844 362.382812 189.261719 361.925781 C 189.058594 361.472656 188.882812 361.003906 188.738281 360.53125 C 188.589844 360.054688 188.472656 359.570312 188.382812 359.082031 C 188.292969 358.589844 188.230469 358.097656 188.199219 357.601562 C 188.167969 357.101562 188.167969 356.605469 188.195312 356.109375 C 188.222656 355.609375 188.28125 355.117188 188.367188 354.625 C 188.453125 354.132812 188.570312 353.652344 188.714844 353.175781 C 188.855469 352.695312 189.027344 352.230469 189.230469 351.773438 C 190.066406 349.589844 191.265625 347.527344 192.222656 345.40625 C 192.722656 344.328125 193 343.195312 193.050781 342.011719 C 193.105469 340.824219 192.925781 339.671875 192.523438 338.558594 C 190.367188 331.859375 188.152344 325.160156 186.144531 318.433594 C 184.945312 315.082031 184.144531 311.640625 183.746094 308.105469 C 183.34375 304.570312 183.355469 301.035156 183.78125 297.5 C 183.933594 296.445312 183.96875 295.382812 183.878906 294.320312 C 183.785156 293.253906 183.578125 292.214844 183.246094 291.199219 C 182.917969 290.183594 182.476562 289.214844 181.925781 288.300781 C 181.375 287.386719 180.726562 286.546875 179.980469 285.78125 C 173.144531 278.59375 167.226562 270.71875 162.230469 262.15625 C 160.222656 258.449219 158.1875 254.742188 156.242188 250.914062 C 153.367188 244.917969 151.800781 238.601562 151.542969 231.957031 C 151.542969 229.625 151.09375 227.261719 151.152344 224.929688 C 151.214844 223.640625 151.128906 222.359375 150.894531 221.089844 C 150.660156 219.820312 150.285156 218.59375 149.765625 217.410156 C 149.246094 216.226562 148.597656 215.117188 147.820312 214.085938 C 147.042969 213.054688 146.160156 212.121094 145.167969 211.292969 C 137.90625 204.554688 131.140625 197.347656 124.871094 189.675781 C 118.257812 181.722656 112.316406 173.296875 107.042969 164.402344 C 101.773438 155.503906 97.238281 146.246094 93.441406 136.628906 C 92.105469 133.65625 90.609375 130.765625 88.953125 127.957031 C 88.382812 126.941406 85.957031 127.089844 85.148438 127.957031 C 82.058594 132.171875 79.855469 136.808594 78.535156 141.863281 C 76.078125 148.097656 75.082031 154.554688 75.542969 161.238281 C 75.542969 162.414062 75.804688 163.53125 76.332031 164.582031 C 76.859375 165.632812 77.59375 166.511719 78.535156 167.21875 C 92.183594 175.832031 100.148438 189.316406 108.46875 202.382812 C 113.136719 209.710938 117.328125 217.003906 124.871094 221.429688 C 125.632812 221.984375 126.308594 222.621094 126.90625 223.34375 C 127.277344 223.722656 127.625 224.121094 127.953125 224.535156 C 128.277344 224.949219 128.585938 225.378906 128.867188 225.824219 C 129.152344 226.273438 129.410156 226.730469 129.644531 227.203125 C 129.878906 227.675781 130.089844 228.160156 130.277344 228.65625 C 130.460938 229.152344 130.621094 229.652344 130.753906 230.164062 C 130.890625 230.675781 130.996094 231.191406 131.074219 231.714844 C 131.15625 232.238281 131.207031 232.761719 131.234375 233.289062 C 131.261719 233.816406 131.257812 234.34375 131.230469 234.871094 C 131.203125 235.398438 131.144531 235.921875 131.0625 236.445312 C 130.980469 236.964844 130.871094 237.484375 130.734375 237.992188 C 130.597656 238.503906 130.433594 239.003906 130.246094 239.5 C 130.058594 239.992188 129.84375 240.476562 129.605469 240.945312 C 129.367188 241.417969 129.105469 241.875 128.820312 242.320312 C 128.535156 242.765625 128.226562 243.195312 127.898438 243.605469 C 127.570312 244.019531 127.21875 244.414062 126.847656 244.792969 C 126.476562 245.167969 126.085938 245.523438 125.679688 245.859375 C 124.207031 247.074219 122.523438 247.761719 120.621094 247.925781 C 119.324219 247.996094 118.039062 247.875 116.777344 247.566406 C 115.515625 247.257812 114.324219 246.769531 113.203125 246.109375 C 112.085938 245.445312 111.085938 244.636719 110.207031 243.675781 C 109.328125 242.71875 108.609375 241.652344 108.050781 240.480469 C 107.339844 239.117188 106.789062 237.695312 106.394531 236.210938 C 106.003906 234.730469 105.777344 233.21875 105.722656 231.6875 C 105.664062 230.152344 105.777344 228.632812 106.058594 227.125 C 106.339844 225.617188 106.785156 224.15625 107.390625 222.746094 C 107.828125 221.78125 108.144531 220.777344 108.347656 219.738281 C 108.550781 218.699219 108.632812 217.648438 108.589844 216.589844 C 108.550781 215.53125 108.386719 214.492188 108.101562 213.472656 C 107.820312 212.449219 107.421875 211.476562 106.910156 210.546875 C 104.109375 204.554688 100.6875 198.9375 96.648438 193.695312 C 92.609375 188.457031 88.046875 183.714844 82.964844 179.480469 C 81.789062 178.703125 80.523438 178.136719 79.164062 177.773438 C 78.824219 177.699219 78.476562 177.679688 78.132812 177.714844 C 77.785156 177.75 77.449219 177.835938 77.132812 177.976562 C 76.8125 178.117188 76.519531 178.300781 76.257812 178.53125 C 76 178.761719 75.777344 179.027344 75.601562 179.328125 C 75.394531 179.730469 75.222656 180.152344 75.09375 180.585938 C 74.730469 182.914062 74.570312 185.253906 74.621094 187.609375 C 74.667969 189.964844 74.925781 192.296875 75.382812 194.609375 C 75.84375 196.917969 76.5 199.171875 77.355469 201.367188 C 78.214844 203.5625 79.253906 205.664062 80.480469 207.675781 C 81.257812 208.84375 82.1875 209.917969 82.90625 211.144531 C 83.304688 211.730469 83.644531 212.351562 83.925781 213.003906 C 84.203125 213.652344 84.421875 214.324219 84.574219 215.019531 C 84.722656 215.710938 84.808594 216.414062 84.824219 217.121094 C 84.84375 217.832031 84.792969 218.535156 84.675781 219.234375 C 84.558594 219.933594 84.375 220.617188 84.128906 221.28125 C 83.878906 221.945312 83.570312 222.582031 83.203125 223.1875 C 82.832031 223.792969 82.410156 224.355469 81.929688 224.882812 C 81.453125 225.40625 80.929688 225.878906 80.359375 226.304688 C 79.421875 227.019531 78.40625 227.585938 77.304688 228.011719 C 76.203125 228.433594 75.066406 228.695312 73.890625 228.792969 C 72.71875 228.890625 71.550781 228.820312 70.398438 228.585938 C 69.242188 228.351562 68.144531 227.960938 67.101562 227.410156 C 66.148438 226.710938 65.320312 225.886719 64.613281 224.941406 C 63.910156 223.996094 63.355469 222.96875 62.953125 221.859375 C 62.550781 220.75 62.316406 219.605469 62.253906 218.429688 C 62.191406 217.25 62.300781 216.089844 62.582031 214.941406 C 62.660156 214.480469 62.8125 214.042969 63.027344 213.625 C 68.714844 206.242188 67.847656 197.898438 67.191406 189.347656 C 66.589844 181.871094 67.191406 174.394531 66.980469 166.800781 C 66.980469 151.847656 71.261719 138.0625 76.976562 124.546875 C 77.90625 122.367188 79.105469 120.332031 79.972656 118.148438 C 80.738281 116.429688 81.347656 114.652344 81.800781 112.824219 C 82.257812 110.996094 82.550781 109.144531 82.679688 107.265625 C 82.808594 105.386719 82.777344 103.511719 82.578125 101.636719 C 82.378906 99.765625 82.019531 97.921875 81.5 96.113281 C 76.574219 80.757812 74.25 65.019531 74.523438 48.898438 C 74.355469 47.039062 73.945312 45.234375 73.296875 43.484375 C 73.121094 43.183594 72.902344 42.917969 72.644531 42.683594 C 72.386719 42.453125 72.101562 42.261719 71.785156 42.113281 C 71.46875 41.96875 71.140625 41.871094 70.796875 41.824219 C 70.453125 41.777344 70.105469 41.78125 69.765625 41.839844 C 68.054688 42.570312 66.40625 43.429688 64.824219 44.410156 C 56.085938 50.890625 48.292969 58.355469 41.445312 66.808594 C 39.667969 69.019531 38.269531 71.453125 37.257812 74.105469 C 35.402344 78.410156 33.933594 82.894531 32.199219 87.261719 C 31.574219 88.53125 31.097656 89.851562 30.765625 91.226562 C 30.433594 92.601562 30.253906 93.996094 30.230469 95.410156 C 30.207031 96.824219 30.339844 98.222656 30.625 99.605469 C 30.914062 100.992188 31.347656 102.328125 31.929688 103.617188 C 32.492188 104.933594 32.816406 106.304688 32.898438 107.730469 C 32.980469 109.160156 32.816406 110.558594 32.40625 111.929688 C 32.257812 112.617188 32.054688 113.292969 31.796875 113.949219 C 31.542969 114.605469 31.238281 115.242188 30.886719 115.851562 C 30.53125 116.460938 30.132812 117.039062 29.691406 117.589844 C 29.246094 118.136719 28.761719 118.648438 28.242188 119.125 C 27.71875 119.597656 27.164062 120.027344 26.574219 120.417969 C 25.984375 120.804688 25.367188 121.144531 24.726562 121.4375 C 24.085938 121.730469 23.421875 121.972656 22.742188 122.164062 C 22.0625 122.355469 21.375 122.492188 20.671875 122.574219 C 20.148438 122.640625 19.621094 122.679688 19.09375 122.691406 C 18.5625 122.707031 18.035156 122.691406 17.507812 122.648438 C 16.980469 122.605469 16.457031 122.535156 15.9375 122.441406 C 15.414062 122.34375 14.902344 122.222656 14.394531 122.074219 C 13.886719 121.921875 13.386719 121.75 12.898438 121.550781 C 12.40625 121.347656 11.929688 121.125 11.460938 120.875 C 10.996094 120.625 10.542969 120.351562 10.105469 120.054688 C 9.667969 119.761719 9.246094 119.441406 8.839844 119.101562 C 8.433594 118.761719 8.046875 118.402344 7.675781 118.023438 C 7.308594 117.644531 6.960938 117.246094 6.632812 116.832031 C 6.304688 116.417969 6 115.988281 5.714844 115.539062 C 5.433594 115.09375 5.175781 114.632812 4.9375 114.160156 C 4.703125 113.6875 4.492188 113.203125 4.304688 112.707031 C 4.121094 112.214844 3.960938 111.710938 3.824219 111.199219 C 3.691406 110.6875 3.582031 110.171875 3.503906 109.648438 C 3.421875 109.125 3.367188 108.601562 3.34375 108.074219 C 3.320312 107.429688 3.34375 106.789062 3.421875 106.152344 C 3.5 105.511719 3.628906 104.882812 3.804688 104.265625 C 3.980469 103.644531 4.203125 103.042969 4.476562 102.460938 C 4.746094 101.878906 5.0625 101.320312 5.421875 100.785156 C 5.78125 100.25 6.179688 99.75 6.621094 99.277344 C 7.058594 98.808594 7.53125 98.371094 8.039062 97.976562 C 8.542969 97.578125 9.078125 97.226562 9.640625 96.914062 C 10.207031 96.597656 10.789062 96.332031 11.394531 96.113281 C 11.828125 95.9375 12.277344 95.816406 12.742188 95.753906 C 19.773438 95.246094 23.425781 90.402344 26.480469 84.898438 C 27.480469 82.78125 28.367188 80.617188 29.144531 78.410156 C 32.925781 69.175781 38.195312 60.882812 44.949219 53.53125 C 50.710938 46.660156 57.207031 40.570312 64.4375 35.261719 C 66.324219 33.855469 68.128906 32.351562 69.855469 30.746094 C 71.136719 29.695312 72.207031 28.460938 73.070312 27.046875 C 73.933594 25.632812 74.535156 24.113281 74.882812 22.492188 C 75.902344 17.917969 77.15625 13.375 78.476562 8.859375 C 78.871094 7.5 79.519531 6.273438 80.421875 5.179688 C 80.726562 4.871094 81.082031 4.644531 81.492188 4.503906 C 81.902344 4.363281 82.324219 4.316406 82.753906 4.371094 C 83.203125 4.476562 83.605469 4.671875 83.960938 4.960938 C 84.320312 5.25 84.597656 5.601562 84.789062 6.015625 C 85.199219 7.359375 85.316406 8.722656 85.148438 10.113281 C 84.253906 16.632812 82.996094 23.089844 82.15625 29.609375 C 81.179688 40.453125 81.742188 51.21875 83.832031 61.902344 C 83.921875 62.609375 84.125 63.28125 84.445312 63.914062 C 84.765625 64.550781 85.183594 65.113281 85.699219 65.605469 C 86.214844 66.09375 86.796875 66.484375 87.449219 66.773438 C 88.101562 67.0625 88.78125 67.234375 89.492188 67.285156 C 93.710938 67.554688 97.960938 67.792969 102.183594 67.765625 C 110.261719 67.394531 118.242188 68.101562 126.128906 69.886719 "/>
</g>
</g>
</svg>
