<?xml version="1.0" encoding="UTF-8"?>
<svg xmlns="http://www.w3.org/2000/svg" xmlns:xlink="http://www.w3.org/1999/xlink" width="375pt" height="374.999991pt" viewBox="0 0 375 374.999991" version="1.2">
<defs>
<clipPath id="clip1">
  <path d="M 22 23.390625 L 353 23.390625 L 353 351.890625 L 22 351.890625 Z M 22 23.390625 "/>
</clipPath>
</defs>
<g id="surface1">
<rect x="0" y="0" width="375" height="374.999991" style="fill:rgb(100%,100%,100%);fill-opacity:1;stroke:none;"/>
<path style=" stroke:none;fill-rule:nonzero;fill:rgb(0%,50.19989%,21.569824%);fill-opacity:1;" d="M 0 375 L 375 375 L 375 0 L 0 0 Z M 15 15 L 360 15 L 360 360 L 15 360 Z M 15 15 "/>
<g clip-path="url(#clip1)" clip-rule="nonzero">
<path style=" stroke:none;fill-rule:nonzero;fill:rgb(0%,50.19989%,21.569824%);fill-opacity:1;" d="M 162.324219 86.300781 C 163.816406 87.082031 165.382812 87.671875 167.019531 88.074219 C 171.125 89.039062 175.3125 89.710938 179.390625 90.757812 C 187.246094 92.503906 194.804688 95.105469 202.070312 98.566406 C 205.476562 100.265625 208.964844 101.777344 212.535156 103.101562 C 218.296875 105.199219 223.8125 107.8125 229.082031 110.945312 C 234.351562 114.074219 239.285156 117.671875 243.878906 121.726562 C 245.101562 122.902344 246.472656 123.871094 247.984375 124.636719 C 249.5 125.398438 251.089844 125.925781 252.761719 126.210938 C 253.996094 126.425781 255.257812 126.585938 256.519531 126.828125 C 265.886719 128.597656 268.757812 140.058594 263.660156 146.847656 C 257.941406 154.445312 249.675781 153.960938 245.652344 145.507812 C 244.632812 143.1875 243.898438 140.78125 243.449219 138.285156 C 243.117188 136.632812 242.628906 135.027344 241.992188 133.464844 C 241.351562 131.902344 240.574219 130.414062 239.65625 129 C 238.738281 127.585938 237.695312 126.269531 236.527344 125.050781 C 235.359375 123.832031 234.089844 122.734375 232.714844 121.753906 C 229.140625 118.78125 225.292969 116.210938 221.175781 114.050781 C 215.433594 111.367188 209.824219 108.390625 203.949219 106 C 192.5625 101.578125 180.929688 97.925781 169.058594 95.050781 C 158.25 92.835938 147.347656 91.316406 136.347656 90.488281 C 132.453125 90.058594 130.171875 92.609375 130.199219 96.6875 C 130.371094 102.664062 131.617188 108.40625 133.929688 113.917969 C 134.386719 115.070312 135.058594 116.171875 135.59375 117.300781 C 140.558594 127.632812 140.960938 127.875 151.992188 125.109375 C 164.472656 121.996094 177.136719 122.425781 189.75 123.390625 C 196.941406 124.28125 203.765625 126.367188 210.226562 129.644531 C 213.65625 131.324219 217.234375 132.574219 220.960938 133.402344 C 228.421875 134.796875 231.9375 140.757812 231.429688 148.40625 C 231.367188 149.472656 231.105469 150.488281 230.640625 151.449219 C 230.175781 152.414062 229.542969 153.25 228.746094 153.960938 C 227.769531 154.773438 226.695312 155.429688 225.527344 155.925781 C 224.359375 156.425781 223.144531 156.742188 221.882812 156.882812 C 220.617188 157.019531 219.363281 156.972656 218.113281 156.738281 C 216.863281 156.507812 215.675781 156.101562 214.546875 155.515625 C 213.25 154.753906 212.171875 153.757812 211.308594 152.527344 C 210.449219 151.292969 209.882812 149.9375 209.609375 148.457031 C 209.074219 146.015625 209.152344 143.414062 208.859375 140.917969 C 208.695312 139.636719 208.257812 138.460938 207.546875 137.386719 C 206.832031 136.308594 205.921875 135.445312 204.804688 134.796875 C 201.933594 132.953125 198.882812 131.480469 195.652344 130.386719 C 192.417969 129.292969 189.101562 128.605469 185.699219 128.328125 C 176.382812 127.339844 167.152344 127.851562 158.003906 129.859375 C 155.582031 130.578125 153.257812 131.523438 151.027344 132.703125 C 150.6875 132.949219 150.40625 133.246094 150.175781 133.597656 C 149.949219 133.949219 149.789062 134.328125 149.699219 134.734375 C 149.609375 135.144531 149.597656 135.554688 149.660156 135.96875 C 149.722656 136.378906 149.855469 136.769531 150.058594 137.132812 C 150.457031 137.875 150.921875 138.574219 151.453125 139.226562 C 154.808594 142.445312 158.109375 145.695312 161.597656 148.726562 C 162.507812 149.617188 163.496094 150.410156 164.5625 151.097656 C 165.632812 151.789062 166.757812 152.367188 167.945312 152.828125 C 169.132812 153.289062 170.351562 153.625 171.605469 153.839844 C 172.859375 154.050781 174.121094 154.136719 175.394531 154.09375 C 176.664062 154.023438 177.925781 154.113281 179.175781 154.367188 C 180.425781 154.621094 181.621094 155.03125 182.761719 155.597656 C 183.90625 156.160156 184.957031 156.863281 185.917969 157.699219 C 186.878906 158.535156 187.71875 159.480469 188.4375 160.535156 C 188.976562 161.191406 189.421875 161.90625 189.773438 162.679688 C 190.128906 163.453125 190.375 164.257812 190.519531 165.097656 C 190.664062 165.933594 190.695312 166.777344 190.621094 167.621094 C 190.546875 168.46875 190.363281 169.292969 190.074219 170.089844 C 189.796875 171.007812 189.390625 171.863281 188.855469 172.660156 C 188.320312 173.453125 187.679688 174.148438 186.929688 174.75 C 186.183594 175.347656 185.363281 175.824219 184.472656 176.171875 C 183.578125 176.523438 182.65625 176.730469 181.699219 176.800781 C 180.652344 176.984375 179.597656 177.011719 178.539062 176.886719 C 177.484375 176.765625 176.464844 176.492188 175.488281 176.070312 C 174.511719 175.644531 173.613281 175.09375 172.800781 174.410156 C 171.984375 173.726562 171.28125 172.9375 170.695312 172.050781 C 169.621094 170.234375 168.808594 168.3125 168.253906 166.277344 C 167.164062 163.042969 165.285156 160.359375 162.617188 158.226562 C 156.3125 152.617188 150.085938 146.929688 143.996094 141.078125 C 141.476562 138.8125 139.300781 136.253906 137.472656 133.402344 C 132.105469 124.332031 126.738281 115.179688 125.019531 104.523438 C 124.402344 100.792969 123.355469 97.117188 122.335938 93.441406 C 122.199219 92.816406 121.972656 92.230469 121.65625 91.675781 C 121.339844 91.121094 120.949219 90.625 120.488281 90.1875 C 120.023438 89.75 119.503906 89.390625 118.933594 89.105469 C 118.359375 88.824219 117.761719 88.632812 117.132812 88.527344 C 112.53125 87.609375 107.914062 87.527344 103.285156 88.289062 C 102.554688 88.4375 101.875 88.707031 101.242188 89.101562 C 100.613281 89.496094 100.070312 89.988281 99.613281 90.574219 C 99.15625 91.164062 98.820312 91.8125 98.597656 92.523438 C 98.375 93.230469 98.28125 93.957031 98.320312 94.703125 C 98.292969 95.113281 98.292969 95.523438 98.320312 95.9375 C 102.050781 112.84375 106.046875 129.644531 113.238281 145.53125 C 119.460938 159.015625 127.449219 171.351562 137.203125 182.542969 C 141.875 187.910156 145.710938 194.136719 151.480469 198.644531 C 152.824219 199.691406 154.003906 200.902344 155.320312 201.945312 C 156.132812 202.617188 157.019531 203.160156 157.988281 203.582031 C 158.953125 204 159.957031 204.277344 161.003906 204.414062 C 162.046875 204.546875 163.089844 204.535156 164.132812 204.378906 C 165.171875 204.21875 166.171875 203.917969 167.128906 203.476562 C 169.8125 202.351562 172.496094 200.792969 175.179688 199.691406 C 183.6875 195.988281 192.167969 192.203125 200.78125 188.796875 C 211.902344 184.394531 223.441406 182.175781 235.398438 182.140625 C 236.550781 182.199219 237.695312 182.121094 238.828125 181.910156 C 239.964844 181.699219 241.058594 181.363281 242.113281 180.894531 C 243.167969 180.429688 244.15625 179.847656 245.074219 179.152344 C 245.996094 178.457031 246.824219 177.664062 247.558594 176.773438 C 251.449219 172.34375 256.464844 172.398438 261.242188 175.671875 C 262.507812 176.457031 263.613281 177.425781 264.558594 178.574219 C 265.503906 179.722656 266.242188 180.992188 266.773438 182.382812 C 266.910156 182.675781 267.03125 182.972656 267.136719 183.277344 C 267.242188 183.585938 267.328125 183.894531 267.394531 184.210938 C 267.464844 184.527344 267.515625 184.847656 267.546875 185.167969 C 267.578125 185.488281 267.59375 185.8125 267.589844 186.136719 C 267.582031 186.460938 267.558594 186.78125 267.519531 187.101562 C 267.476562 187.421875 267.417969 187.738281 267.339844 188.054688 C 267.257812 188.367188 267.164062 188.675781 267.050781 188.976562 C 266.9375 189.28125 266.804688 189.574219 266.660156 189.863281 C 266.511719 190.152344 266.347656 190.429688 266.167969 190.699219 C 265.988281 190.96875 265.796875 191.226562 265.585938 191.472656 C 265.378906 191.71875 265.15625 191.953125 264.917969 192.175781 C 264.683594 192.394531 264.4375 192.601562 264.175781 192.792969 C 263.917969 192.988281 263.648438 193.164062 263.367188 193.328125 C 263.085938 193.488281 262.800781 193.632812 262.503906 193.761719 C 262.207031 193.890625 261.902344 194.003906 261.59375 194.097656 C 261.285156 194.191406 260.972656 194.265625 260.652344 194.324219 C 259.023438 194.804688 257.363281 195.023438 255.667969 194.976562 C 253.96875 194.929688 252.324219 194.625 250.722656 194.058594 C 242.585938 191.601562 234.265625 190.429688 225.765625 190.539062 C 224.085938 190.5 222.414062 190.582031 220.746094 190.78125 C 217.015625 191.238281 213.554688 193.464844 213.609375 195.128906 C 213.714844 196.414062 214.101562 197.609375 214.765625 198.710938 C 215.429688 199.816406 216.308594 200.714844 217.390625 201.410156 C 221.070312 204.226562 224.851562 206.777344 228.746094 209.460938 C 229.027344 209.703125 229.332031 209.910156 229.660156 210.085938 C 229.988281 210.261719 230.328125 210.398438 230.6875 210.503906 C 231.042969 210.605469 231.40625 210.667969 231.777344 210.691406 C 232.148438 210.714844 232.515625 210.699219 232.882812 210.644531 C 233.25 210.589844 233.609375 210.5 233.957031 210.367188 C 234.304688 210.238281 234.632812 210.070312 234.945312 209.867188 C 235.257812 209.667969 235.542969 209.433594 235.804688 209.171875 C 236.066406 208.90625 236.300781 208.621094 236.5 208.308594 C 236.765625 207.984375 237.050781 207.679688 237.359375 207.394531 C 242.109375 203.371094 246 203.046875 251.097656 206.242188 C 251.699219 206.574219 252.265625 206.957031 252.800781 207.386719 C 253.335938 207.816406 253.832031 208.289062 254.285156 208.804688 C 254.738281 209.316406 255.148438 209.867188 255.507812 210.449219 C 255.871094 211.035156 256.179688 211.644531 256.4375 212.28125 C 256.695312 212.914062 256.898438 213.570312 257.046875 214.238281 C 257.195312 214.910156 257.28125 215.585938 257.316406 216.273438 C 257.347656 216.957031 257.320312 217.640625 257.238281 218.324219 C 257.152344 219.003906 257.011719 219.675781 256.816406 220.332031 C 256.371094 221.535156 255.65625 222.546875 254.667969 223.363281 C 253.933594 223.980469 253.140625 224.5 252.28125 224.925781 C 251.425781 225.351562 250.53125 225.671875 249.597656 225.886719 C 248.664062 226.101562 247.71875 226.203125 246.761719 226.195312 C 245.804688 226.1875 244.863281 226.066406 243.933594 225.832031 C 242.253906 225.554688 240.648438 225.03125 239.125 224.269531 C 237.601562 223.503906 236.226562 222.53125 234.996094 221.351562 C 230.621094 216.601562 224.988281 213.703125 219.753906 210.1875 C 215.582031 207.304688 211.691406 204.085938 208.082031 200.523438 C 207.679688 200.105469 207.25 199.71875 206.792969 199.363281 C 206.332031 199.011719 205.847656 198.695312 205.339844 198.417969 C 204.832031 198.140625 204.304688 197.902344 203.757812 197.707031 C 203.210938 197.511719 202.652344 197.359375 202.082031 197.253906 C 201.511719 197.144531 200.9375 197.082031 200.359375 197.066406 C 199.78125 197.046875 199.203125 197.074219 198.628906 197.148438 C 198.050781 197.21875 197.484375 197.335938 196.929688 197.5 C 196.371094 197.660156 195.832031 197.863281 195.304688 198.109375 C 187.820312 200.953125 180.117188 203.476562 173.996094 208.84375 C 173.792969 209.011719 173.609375 209.199219 173.449219 209.40625 C 173.285156 209.617188 173.152344 209.84375 173.046875 210.085938 C 172.941406 210.328125 172.867188 210.578125 172.820312 210.839844 C 172.777344 211.101562 172.761719 211.363281 172.78125 211.625 C 172.800781 211.890625 172.847656 212.148438 172.929688 212.398438 C 173.011719 212.652344 173.121094 212.890625 173.257812 213.113281 C 173.398438 213.339844 173.5625 213.546875 173.75 213.730469 C 173.9375 213.917969 174.144531 214.078125 174.375 214.210938 C 175.011719 214.753906 175.691406 215.234375 176.414062 215.660156 C 186.105469 220.851562 196.160156 225.199219 206.578125 228.703125 C 224.140625 233.652344 242.03125 236.613281 260.25 237.589844 C 261.519531 237.648438 262.78125 237.578125 264.035156 237.375 C 264.558594 237.339844 265.074219 237.238281 265.570312 237.070312 C 266.070312 236.898438 266.535156 236.664062 266.972656 236.367188 C 267.40625 236.066406 267.792969 235.71875 268.132812 235.316406 C 268.472656 234.910156 268.753906 234.472656 268.972656 233.992188 C 269.328125 233.222656 269.632812 232.4375 269.882812 231.628906 C 274.3125 216.546875 283.707031 204.792969 295.085938 194.433594 C 302.785156 187.140625 311.292969 180.957031 320.605469 175.886719 C 322.511719 174.949219 324.214844 173.722656 325.714844 172.214844 C 327.214844 170.707031 328.425781 168.996094 329.355469 167.085938 C 330.066406 165.542969 330.996094 164.144531 332.140625 162.890625 C 333.285156 161.632812 334.59375 160.582031 336.0625 159.730469 C 336.894531 159.25 337.78125 158.902344 338.71875 158.691406 C 339.65625 158.476562 340.605469 158.410156 341.566406 158.484375 C 342.523438 158.5625 343.449219 158.78125 344.339844 159.140625 C 345.234375 159.496094 346.054688 159.980469 346.796875 160.589844 C 347.796875 161.363281 348.671875 162.257812 349.417969 163.28125 C 350.164062 164.300781 350.753906 165.402344 351.1875 166.589844 C 351.621094 167.777344 351.882812 169 351.972656 170.261719 C 352.0625 171.523438 351.972656 172.773438 351.710938 174.007812 C 351.609375 174.636719 351.445312 175.25 351.226562 175.847656 C 351.007812 176.445312 350.734375 177.015625 350.40625 177.5625 C 350.078125 178.105469 349.703125 178.617188 349.277344 179.089844 C 348.851562 179.5625 348.382812 179.992188 347.875 180.375 C 347.367188 180.757812 346.828125 181.089844 346.257812 181.371094 C 345.6875 181.652344 345.09375 181.875 344.480469 182.042969 C 343.867188 182.210938 343.242188 182.320312 342.605469 182.367188 C 341.972656 182.414062 341.339844 182.402344 340.707031 182.328125 C 337.808594 181.792969 334.957031 181.085938 332.144531 180.207031 C 330.914062 179.867188 329.660156 179.742188 328.386719 179.828125 C 327.109375 179.914062 325.886719 180.210938 324.710938 180.71875 C 321.976562 181.851562 319.355469 183.199219 316.847656 184.769531 C 310.039062 189.050781 303.761719 194.003906 298.015625 199.632812 C 292.269531 205.261719 287.1875 211.4375 282.765625 218.15625 C 280.210938 222.09375 278.5 226.371094 277.640625 230.984375 C 277.558594 231.347656 277.519531 231.714844 277.519531 232.082031 C 277.523438 232.453125 277.566406 232.820312 277.652344 233.179688 C 277.734375 233.539062 277.859375 233.886719 278.023438 234.21875 C 278.1875 234.550781 278.386719 234.859375 278.621094 235.148438 C 278.855469 235.433594 279.117188 235.691406 279.410156 235.917969 C 279.703125 236.144531 280.015625 236.335938 280.351562 236.492188 C 280.6875 236.648438 281.035156 236.765625 281.398438 236.839844 C 281.761719 236.917969 282.128906 236.953125 282.496094 236.945312 C 286.28125 237.078125 290.09375 236.945312 293.875 236.945312 C 296.425781 236.945312 298.949219 236.945312 301.472656 236.945312 C 304.878906 237.09375 308.214844 236.675781 311.476562 235.6875 C 314.742188 234.695312 317.75 233.191406 320.5 231.175781 C 327.984375 225.054688 339.929688 229.9375 342.503906 239.734375 C 342.601562 240.039062 342.679688 240.347656 342.742188 240.660156 C 342.800781 240.976562 342.84375 241.289062 342.867188 241.609375 C 342.894531 241.925781 342.898438 242.246094 342.886719 242.566406 C 342.871094 242.882812 342.839844 243.199219 342.792969 243.515625 C 342.742188 243.832031 342.675781 244.144531 342.589844 244.449219 C 342.503906 244.757812 342.398438 245.058594 342.277344 245.355469 C 342.15625 245.648438 342.019531 245.9375 341.863281 246.214844 C 341.710938 246.496094 341.539062 246.765625 341.355469 247.023438 C 341.167969 247.285156 340.96875 247.53125 340.753906 247.769531 C 340.539062 248.003906 340.3125 248.230469 340.074219 248.4375 C 339.832031 248.648438 339.582031 248.84375 339.316406 249.023438 C 339.054688 249.207031 338.78125 249.371094 338.5 249.519531 C 338.21875 249.667969 337.925781 249.800781 337.628906 249.917969 C 337.332031 250.03125 337.027344 250.128906 336.71875 250.210938 C 336.410156 250.289062 336.097656 250.351562 335.78125 250.394531 C 335.464844 250.4375 335.148438 250.464844 334.828125 250.46875 C 333.148438 250.574219 331.476562 250.503906 329.8125 250.257812 C 328.140625 249.941406 326.53125 249.441406 324.980469 248.753906 C 314.917969 244.296875 304.398438 245.074219 293.851562 245.90625 C 293.441406 245.980469 293.039062 246.078125 292.640625 246.203125 C 292.335938 246.253906 292.035156 246.335938 291.746094 246.449219 C 291.457031 246.5625 291.179688 246.703125 290.921875 246.878906 C 290.664062 247.050781 290.425781 247.25 290.207031 247.472656 C 289.992188 247.695312 289.800781 247.941406 289.636719 248.203125 C 289.472656 248.46875 289.339844 248.75 289.234375 249.042969 C 289.128906 249.335938 289.058594 249.636719 289.019531 249.945312 C 288.980469 250.253906 288.972656 250.5625 289 250.875 C 289.027344 251.183594 289.085938 251.488281 289.179688 251.785156 C 289.710938 253.617188 290.40625 255.390625 291.257812 257.097656 C 292.109375 258.804688 293.109375 260.421875 294.253906 261.949219 C 295.402344 263.476562 296.675781 264.886719 298.078125 266.183594 C 299.480469 267.476562 300.988281 268.636719 302.597656 269.660156 C 306.589844 272.039062 310.703125 274.175781 314.941406 276.074219 C 316.492188 276.785156 318.117188 277.203125 319.820312 277.316406 C 321.519531 277.433594 323.1875 277.242188 324.820312 276.746094 C 326.457031 276.289062 328.011719 275.617188 329.648438 275.242188 C 330.234375 275.078125 330.828125 274.949219 331.429688 274.855469 C 332.03125 274.761719 332.636719 274.707031 333.246094 274.6875 C 333.855469 274.664062 334.460938 274.683594 335.066406 274.734375 C 335.675781 274.789062 336.273438 274.875 336.871094 275 C 337.464844 275.128906 338.050781 275.289062 338.628906 275.484375 C 339.203125 275.679688 339.765625 275.910156 340.316406 276.171875 C 340.863281 276.4375 341.394531 276.730469 341.910156 277.058594 C 342.421875 277.386719 342.914062 277.742188 343.382812 278.128906 C 343.851562 278.515625 344.296875 278.929688 344.71875 279.371094 C 345.140625 279.8125 345.53125 280.273438 345.894531 280.761719 C 346.261719 281.25 346.59375 281.757812 346.898438 282.285156 C 347.199219 282.8125 347.46875 283.359375 347.707031 283.917969 C 347.945312 284.476562 348.148438 285.050781 348.316406 285.636719 C 348.488281 286.21875 348.621094 286.8125 348.71875 287.414062 C 348.816406 288.015625 348.875 288.621094 348.902344 289.226562 C 348.925781 289.835938 348.914062 290.441406 348.863281 291.050781 C 348.855469 291.796875 348.746094 292.527344 348.542969 293.246094 C 348.339844 293.960938 348.050781 294.640625 347.667969 295.28125 C 347.285156 295.921875 346.828125 296.503906 346.292969 297.023438 C 345.761719 297.542969 345.167969 297.984375 344.515625 298.351562 C 343.332031 299.050781 342.082031 299.609375 340.769531 300.019531 C 339.453125 300.433594 338.113281 300.691406 336.738281 300.792969 C 335.367188 300.894531 334 300.839844 332.636719 300.625 C 331.277344 300.414062 329.960938 300.046875 328.683594 299.53125 C 327.242188 299.070312 325.96875 298.324219 324.863281 297.289062 C 323.761719 296.253906 322.929688 295.035156 322.378906 293.625 C 320.175781 287.589844 315.453125 284.261719 310.191406 281.386719 C 307.214844 279.777344 304.207031 278.273438 301.308594 276.558594 C 298.324219 274.917969 295.644531 272.882812 293.269531 270.445312 C 290.890625 268.007812 288.917969 265.277344 287.355469 262.253906 C 285.851562 259.246094 284.160156 256.320312 282.550781 253.34375 C 282.085938 252.382812 281.5 251.507812 280.785156 250.714844 C 280.070312 249.921875 279.257812 249.246094 278.347656 248.6875 C 277.441406 248.128906 276.472656 247.710938 275.441406 247.429688 C 274.414062 247.148438 273.367188 247.015625 272.300781 247.035156 C 263.441406 246.785156 254.621094 246.050781 245.839844 244.835938 C 229.851562 243.171875 214.214844 239.863281 198.929688 234.90625 C 191.769531 232.359375 184.773438 229.425781 177.941406 226.101562 C 174.535156 224.492188 171.046875 223.015625 167.53125 221.621094 C 165.625 220.839844 163.316406 222.800781 163.316406 225 C 163.25 225.84375 163.25 226.683594 163.316406 227.523438 C 163.675781 230.457031 164.285156 233.335938 165.140625 236.164062 C 167.398438 242.5625 170.414062 248.578125 174.191406 254.214844 C 177.964844 259.851562 182.382812 264.925781 187.441406 269.445312 C 187.84375 269.800781 188.285156 270.09375 188.773438 270.316406 C 189.257812 270.539062 189.765625 270.6875 190.296875 270.761719 C 190.828125 270.832031 191.359375 270.824219 191.886719 270.738281 C 192.417969 270.652344 192.921875 270.488281 193.402344 270.25 C 201.195312 266.824219 209.335938 264.765625 217.820312 264.078125 C 220.734375 263.628906 223.550781 262.84375 226.273438 261.714844 C 228.289062 261.042969 230.113281 259.945312 232.125 259.300781 C 232.527344 259.171875 232.933594 259.066406 233.347656 258.984375 C 233.757812 258.898438 234.175781 258.839844 234.59375 258.800781 C 235.011719 258.761719 235.433594 258.75 235.855469 258.757812 C 236.273438 258.765625 236.695312 258.792969 237.113281 258.847656 C 237.527344 258.902344 237.941406 258.976562 238.351562 259.078125 C 238.761719 259.175781 239.164062 259.296875 239.558594 259.4375 C 239.957031 259.582031 240.34375 259.746094 240.722656 259.929688 C 241.097656 260.117188 241.464844 260.320312 241.820312 260.546875 C 242.175781 260.769531 242.519531 261.015625 242.847656 261.277344 C 243.179688 261.539062 243.492188 261.820312 243.789062 262.117188 C 244.089844 262.414062 244.371094 262.726562 244.636719 263.050781 C 244.898438 263.378906 245.144531 263.722656 245.371094 264.074219 C 245.601562 264.429688 245.808594 264.796875 245.996094 265.171875 C 246.183594 265.550781 246.347656 265.933594 246.492188 266.332031 C 246.640625 266.726562 246.761719 267.128906 246.863281 267.535156 C 246.964844 267.945312 247.042969 268.355469 247.101562 268.773438 C 247.398438 271.285156 247.34375 273.792969 246.941406 276.289062 C 246.855469 276.863281 246.707031 277.417969 246.496094 277.960938 C 246.285156 278.5 246.019531 279.007812 245.691406 279.488281 C 245.367188 279.96875 244.992188 280.40625 244.566406 280.796875 C 244.140625 281.191406 243.679688 281.535156 243.175781 281.824219 C 242.671875 282.113281 242.144531 282.34375 241.589844 282.511719 C 241.035156 282.683594 240.472656 282.789062 239.894531 282.828125 C 239.316406 282.871094 238.738281 282.847656 238.167969 282.757812 C 237.59375 282.667969 237.039062 282.515625 236.5 282.300781 C 234.457031 281.566406 232.667969 280.429688 231.132812 278.890625 C 229.09375 276.800781 227.617188 274.167969 225.765625 271.96875 C 224.941406 270.96875 223.941406 270.199219 222.761719 269.660156 C 221.585938 269.117188 220.351562 268.859375 219.054688 268.882812 C 215.660156 268.878906 212.324219 269.332031 209.054688 270.246094 C 205.78125 271.15625 202.695312 272.492188 199.789062 274.25 C 199.519531 274.410156 199.273438 274.597656 199.050781 274.8125 C 198.824219 275.027344 198.628906 275.261719 198.457031 275.523438 C 198.285156 275.78125 198.144531 276.058594 198.035156 276.351562 C 197.925781 276.640625 197.851562 276.941406 197.808594 277.25 C 197.769531 277.558594 197.761719 277.867188 197.792969 278.175781 C 197.820312 278.484375 197.882812 278.789062 197.980469 279.085938 C 198.074219 279.378906 198.203125 279.660156 198.363281 279.925781 C 198.523438 280.195312 198.714844 280.441406 198.929688 280.664062 C 201.613281 283.339844 204.523438 285.746094 207.652344 287.882812 C 217.152344 293.441406 227.097656 298.027344 237.492188 301.652344 C 238.859375 302.230469 240.273438 302.664062 241.730469 302.953125 C 243.1875 303.238281 244.660156 303.371094 246.144531 303.355469 C 247.628906 303.335938 249.097656 303.164062 250.546875 302.839844 C 251.996094 302.519531 253.394531 302.050781 254.75 301.4375 C 255.539062 301.089844 256.359375 300.859375 257.210938 300.742188 C 258.0625 300.621094 258.917969 300.621094 259.769531 300.742188 C 260.621094 300.859375 261.441406 301.09375 262.230469 301.4375 C 263.019531 301.785156 263.746094 302.230469 264.410156 302.777344 C 265.839844 303.734375 267.019531 304.9375 267.953125 306.382812 C 268.886719 307.828125 269.496094 309.402344 269.777344 311.097656 C 269.976562 312.25 270.054688 313.40625 270.011719 314.574219 C 269.96875 315.742188 269.804688 316.890625 269.519531 318.023438 C 269.234375 319.15625 268.835938 320.246094 268.324219 321.296875 C 267.8125 322.34375 267.195312 323.328125 266.476562 324.25 C 265.996094 324.824219 265.449219 325.324219 264.828125 325.746094 C 264.210938 326.171875 263.542969 326.5 262.832031 326.738281 C 262.121094 326.976562 261.390625 327.109375 260.644531 327.144531 C 259.894531 327.175781 259.15625 327.105469 258.425781 326.933594 C 256.554688 326.492188 254.808594 325.753906 253.195312 324.710938 C 251.578125 323.671875 250.179688 322.390625 249.007812 320.867188 C 246.535156 317.683594 243.644531 314.945312 240.328125 312.65625 C 237.011719 310.367188 233.429688 308.628906 229.578125 307.449219 C 217.65625 303.0625 206.304688 297.515625 195.519531 290.808594 C 195.292969 290.6875 195.054688 290.59375 194.800781 290.535156 C 194.550781 290.476562 194.292969 290.449219 194.035156 290.457031 C 193.777344 290.464844 193.523438 290.507812 193.277344 290.582031 C 193.027344 290.65625 192.792969 290.761719 192.574219 290.898438 C 192.351562 291.035156 192.152344 291.195312 191.976562 291.382812 C 191.800781 291.570312 191.648438 291.78125 191.527344 292.007812 C 191.402344 292.234375 191.3125 292.476562 191.253906 292.726562 C 191.191406 292.976562 191.164062 293.234375 191.171875 293.492188 C 191.066406 294.753906 191.066406 296.015625 191.171875 297.277344 C 191.621094 300.199219 192.230469 303.089844 192.996094 305.945312 C 193.804688 308.628906 194.929688 311.5 195.949219 314.292969 C 196.652344 316.292969 197.613281 318.160156 198.835938 319.894531 C 200.054688 321.625 201.492188 323.160156 203.140625 324.492188 C 204.820312 325.792969 206.273438 327.3125 207.5 329.042969 C 208.730469 330.777344 209.683594 332.648438 210.359375 334.664062 C 211.027344 336.472656 211.296875 338.339844 211.175781 340.265625 C 211.054688 342.1875 210.550781 344.007812 209.664062 345.71875 C 209.421875 346.195312 209.140625 346.648438 208.824219 347.082031 C 208.507812 347.511719 208.15625 347.914062 207.777344 348.289062 C 207.394531 348.664062 206.984375 349.007812 206.546875 349.316406 C 206.109375 349.625 205.652344 349.894531 205.171875 350.128906 C 204.691406 350.363281 204.191406 350.558594 203.679688 350.714844 C 203.167969 350.867188 202.648438 350.980469 202.117188 351.050781 C 201.585938 351.121094 201.054688 351.144531 200.519531 351.128906 C 199.984375 351.113281 199.453125 351.054688 198.929688 350.953125 C 198.484375 350.914062 198.042969 350.851562 197.605469 350.761719 C 197.164062 350.667969 196.734375 350.554688 196.3125 350.410156 C 195.886719 350.269531 195.472656 350.105469 195.066406 349.914062 C 194.664062 349.722656 194.273438 349.507812 193.894531 349.269531 C 193.515625 349.035156 193.148438 348.773438 192.800781 348.496094 C 192.453125 348.214844 192.125 347.914062 191.8125 347.59375 C 191.5 347.273438 191.207031 346.9375 190.933594 346.582031 C 190.660156 346.226562 190.410156 345.859375 190.179688 345.472656 C 189.953125 345.089844 189.746094 344.695312 189.566406 344.285156 C 189.382812 343.875 189.226562 343.457031 189.09375 343.03125 C 188.964844 342.605469 188.855469 342.171875 188.777344 341.730469 C 188.695312 341.289062 188.640625 340.847656 188.613281 340.402344 C 188.585938 339.953125 188.585938 339.507812 188.609375 339.0625 C 188.632812 338.617188 188.6875 338.171875 188.761719 337.730469 C 188.839844 337.292969 188.945312 336.855469 189.074219 336.429688 C 189.203125 336 189.355469 335.582031 189.535156 335.171875 C 190.289062 333.214844 191.359375 331.359375 192.21875 329.457031 C 192.667969 328.488281 192.917969 327.472656 192.964844 326.410156 C 193.011719 325.34375 192.851562 324.3125 192.488281 323.308594 C 190.554688 317.296875 188.570312 311.285156 186.773438 305.246094 C 185.695312 302.242188 184.976562 299.152344 184.617188 295.976562 C 184.261719 292.804688 184.273438 289.632812 184.652344 286.460938 C 184.789062 285.511719 184.820312 284.558594 184.738281 283.605469 C 184.65625 282.648438 184.46875 281.714844 184.171875 280.804688 C 183.878906 279.890625 183.484375 279.023438 182.988281 278.203125 C 182.492188 277.382812 181.910156 276.628906 181.242188 275.941406 C 175.117188 269.488281 169.8125 262.421875 165.328125 254.738281 C 163.53125 251.410156 161.707031 248.082031 159.960938 244.648438 C 157.382812 239.265625 155.980469 233.59375 155.75 227.632812 C 155.75 225.539062 155.347656 223.417969 155.398438 221.324219 C 155.457031 220.167969 155.378906 219.015625 155.167969 217.878906 C 154.957031 216.738281 154.621094 215.636719 154.152344 214.574219 C 153.6875 213.511719 153.109375 212.519531 152.410156 211.589844 C 151.714844 210.664062 150.921875 209.828125 150.03125 209.085938 C 143.523438 203.035156 137.457031 196.566406 131.835938 189.683594 C 119.902344 175.316406 110.511719 159.445312 103.660156 142.070312 C 102.460938 139.402344 101.117188 136.808594 99.632812 134.289062 C 99.125 133.375 96.949219 133.507812 96.226562 134.289062 C 93.453125 138.070312 91.476562 142.230469 90.292969 146.769531 C 88.09375 152.363281 87.199219 158.160156 87.609375 164.160156 C 87.609375 165.214844 87.847656 166.214844 88.320312 167.160156 C 88.792969 168.105469 89.449219 168.894531 90.292969 169.527344 C 102.53125 177.257812 109.671875 189.359375 117.132812 201.089844 C 121.316406 207.664062 125.074219 214.210938 131.835938 218.183594 C 132.519531 218.679688 133.125 219.253906 133.664062 219.902344 C 133.992188 220.242188 134.304688 220.597656 134.597656 220.96875 C 134.890625 221.34375 135.164062 221.726562 135.417969 222.128906 C 135.671875 222.53125 135.90625 222.941406 136.117188 223.367188 C 136.328125 223.789062 136.515625 224.226562 136.683594 224.667969 C 136.847656 225.113281 136.992188 225.5625 137.113281 226.023438 C 137.230469 226.480469 137.328125 226.945312 137.398438 227.414062 C 137.472656 227.882812 137.519531 228.355469 137.542969 228.828125 C 137.566406 229.300781 137.5625 229.773438 137.539062 230.246094 C 137.511719 230.722656 137.460938 231.191406 137.386719 231.660156 C 137.3125 232.128906 137.214844 232.589844 137.09375 233.050781 C 136.96875 233.507812 136.824219 233.957031 136.65625 234.402344 C 136.488281 234.84375 136.296875 235.277344 136.082031 235.699219 C 135.867188 236.125 135.632812 236.535156 135.378906 236.933594 C 135.121094 237.332031 134.847656 237.71875 134.550781 238.089844 C 134.253906 238.457031 133.941406 238.8125 133.609375 239.152344 C 133.277344 239.488281 132.925781 239.808594 132.5625 240.109375 C 131.242188 241.199219 129.730469 241.816406 128.027344 241.964844 C 126.863281 242.027344 125.714844 241.917969 124.582031 241.640625 C 123.449219 241.363281 122.378906 240.929688 121.375 240.332031 C 120.371094 239.738281 119.476562 239.011719 118.691406 238.148438 C 117.902344 237.289062 117.257812 236.332031 116.753906 235.28125 C 116.117188 234.058594 115.625 232.78125 115.273438 231.449219 C 114.921875 230.121094 114.71875 228.765625 114.667969 227.390625 C 114.617188 226.011719 114.71875 224.648438 114.96875 223.292969 C 115.222656 221.941406 115.621094 220.628906 116.164062 219.363281 C 116.554688 218.5 116.84375 217.597656 117.023438 216.664062 C 117.207031 215.730469 117.277344 214.789062 117.242188 213.839844 C 117.203125 212.890625 117.058594 211.957031 116.804688 211.039062 C 116.550781 210.125 116.191406 209.25 115.734375 208.414062 C 113.222656 203.035156 110.15625 197.996094 106.535156 193.292969 C 102.914062 188.589844 98.824219 184.335938 94.265625 180.53125 C 93.214844 179.835938 92.078125 179.324219 90.859375 179 C 90.550781 178.933594 90.242188 178.917969 89.933594 178.949219 C 89.621094 178.980469 89.324219 179.058594 89.035156 179.183594 C 88.75 179.308594 88.488281 179.472656 88.253906 179.679688 C 88.019531 179.886719 87.824219 180.125 87.664062 180.394531 C 87.476562 180.757812 87.324219 181.132812 87.207031 181.523438 C 86.882812 183.613281 86.742188 185.714844 86.785156 187.828125 C 86.828125 189.941406 87.058594 192.035156 87.46875 194.109375 C 87.882812 196.183594 88.472656 198.203125 89.238281 200.175781 C 90.007812 202.144531 90.9375 204.03125 92.039062 205.839844 C 92.738281 206.886719 93.570312 207.851562 94.210938 208.953125 C 94.570312 209.476562 94.875 210.035156 95.125 210.617188 C 95.378906 211.203125 95.570312 211.808594 95.707031 212.429688 C 95.84375 213.050781 95.917969 213.679688 95.933594 214.316406 C 95.949219 214.953125 95.90625 215.585938 95.800781 216.210938 C 95.695312 216.839844 95.53125 217.453125 95.308594 218.050781 C 95.085938 218.644531 94.808594 219.214844 94.476562 219.757812 C 94.148438 220.304688 93.765625 220.808594 93.339844 221.28125 C 92.910156 221.75 92.441406 222.179688 91.929688 222.558594 C 91.089844 223.199219 90.179688 223.710938 89.191406 224.089844 C 88.207031 224.46875 87.183594 224.703125 86.132812 224.792969 C 85.078125 224.878906 84.035156 224.816406 83 224.605469 C 81.964844 224.394531 80.976562 224.042969 80.042969 223.550781 C 79.191406 222.921875 78.449219 222.183594 77.816406 221.335938 C 77.179688 220.488281 76.683594 219.566406 76.324219 218.570312 C 75.964844 217.574219 75.753906 216.546875 75.699219 215.488281 C 75.640625 214.433594 75.738281 213.390625 75.992188 212.359375 C 76.0625 211.945312 76.199219 211.550781 76.394531 211.179688 C 81.492188 204.550781 80.714844 197.0625 80.125 189.386719 C 79.585938 182.675781 80.125 175.96875 79.9375 169.152344 C 79.9375 155.730469 83.773438 143.359375 88.898438 131.226562 C 89.730469 129.269531 90.804688 127.445312 91.582031 125.484375 C 92.964844 122.371094 93.777344 119.113281 94.011719 115.714844 C 94.246094 112.316406 93.894531 108.980469 92.953125 105.707031 C 88.539062 91.921875 86.453125 77.796875 86.699219 63.328125 C 86.546875 61.660156 86.179688 60.039062 85.597656 58.46875 C 85.273438 57.921875 84.824219 57.511719 84.242188 57.242188 C 83.664062 56.972656 83.0625 56.886719 82.429688 56.992188 C 80.898438 57.652344 79.421875 58.421875 78.003906 59.300781 C 70.167969 65.117188 63.179688 71.816406 57.042969 79.402344 C 55.449219 81.390625 54.195312 83.574219 53.285156 85.953125 C 51.621094 89.816406 50.308594 93.84375 48.75 97.761719 C 48.191406 98.898438 47.761719 100.085938 47.464844 101.320312 C 47.167969 102.554688 47.007812 103.804688 46.988281 105.074219 C 46.96875 106.34375 47.085938 107.597656 47.34375 108.84375 C 47.597656 110.085938 47.988281 111.285156 48.511719 112.441406 C 49.015625 113.621094 49.308594 114.851562 49.378906 116.132812 C 49.453125 117.417969 49.308594 118.671875 48.9375 119.902344 C 48.804688 120.519531 48.621094 121.125 48.394531 121.714844 C 48.164062 122.304688 47.890625 122.875 47.574219 123.421875 C 47.257812 123.96875 46.898438 124.488281 46.503906 124.980469 C 46.105469 125.472656 45.671875 125.933594 45.203125 126.359375 C 44.734375 126.785156 44.238281 127.171875 43.710938 127.519531 C 43.179688 127.867188 42.628906 128.171875 42.054688 128.4375 C 41.476562 128.699219 40.886719 128.917969 40.277344 129.085938 C 39.667969 129.257812 39.046875 129.382812 38.417969 129.457031 C 37.949219 129.515625 37.476562 129.550781 37 129.5625 C 36.527344 129.574219 36.054688 129.558594 35.582031 129.523438 C 35.109375 129.484375 34.636719 129.421875 34.171875 129.335938 C 33.707031 129.25 33.246094 129.140625 32.789062 129.007812 C 32.335938 128.871094 31.886719 128.714844 31.449219 128.535156 C 31.007812 128.355469 30.578125 128.152344 30.160156 127.929688 C 29.742188 127.707031 29.335938 127.460938 28.945312 127.195312 C 28.550781 126.929688 28.171875 126.644531 27.808594 126.339844 C 27.445312 126.035156 27.097656 125.714844 26.769531 125.371094 C 26.4375 125.03125 26.125 124.675781 25.832031 124.304688 C 25.539062 123.929688 25.265625 123.542969 25.011719 123.144531 C 24.757812 122.742188 24.523438 122.328125 24.3125 121.90625 C 24.101562 121.480469 23.910156 121.046875 23.746094 120.601562 C 23.578125 120.15625 23.433594 119.707031 23.316406 119.246094 C 23.195312 118.789062 23.097656 118.324219 23.027344 117.855469 C 22.953125 117.386719 22.90625 116.914062 22.882812 116.441406 C 22.859375 115.863281 22.882812 115.289062 22.953125 114.714844 C 23.023438 114.140625 23.136719 113.578125 23.296875 113.023438 C 23.453125 112.46875 23.65625 111.925781 23.898438 111.402344 C 24.140625 110.878906 24.425781 110.378906 24.746094 109.898438 C 25.070312 109.421875 25.425781 108.96875 25.820312 108.546875 C 26.210938 108.125 26.636719 107.734375 27.089844 107.378906 C 27.546875 107.023438 28.023438 106.703125 28.53125 106.421875 C 29.035156 106.144531 29.558594 105.902344 30.101562 105.707031 C 30.488281 105.546875 30.890625 105.441406 31.308594 105.382812 C 37.613281 104.925781 40.886719 100.578125 43.625 95.640625 C 44.519531 93.742188 45.316406 91.800781 46.015625 89.816406 C 49.402344 81.527344 54.125 74.085938 60.183594 67.488281 C 65.347656 61.320312 71.171875 55.855469 77.65625 51.089844 C 79.347656 49.828125 80.964844 48.476562 82.511719 47.035156 C 83.660156 46.09375 84.621094 44.988281 85.394531 43.714844 C 86.167969 42.445312 86.710938 41.082031 87.019531 39.628906 C 87.933594 35.523438 89.058594 31.445312 90.242188 27.390625 C 90.597656 26.171875 91.179688 25.070312 91.984375 24.089844 C 92.257812 23.8125 92.578125 23.609375 92.945312 23.484375 C 93.316406 23.355469 93.691406 23.316406 94.078125 23.367188 C 94.480469 23.457031 94.839844 23.632812 95.160156 23.894531 C 95.480469 24.152344 95.730469 24.46875 95.902344 24.839844 C 96.269531 26.042969 96.375 27.269531 96.226562 28.519531 C 95.421875 34.371094 94.292969 40.167969 93.542969 46.015625 C 92.667969 55.75 93.167969 65.410156 95.042969 75.003906 C 95.125 75.636719 95.304688 76.238281 95.59375 76.808594 C 95.882812 77.378906 96.253906 77.882812 96.71875 78.324219 C 97.179688 78.765625 97.703125 79.113281 98.285156 79.371094 C 98.871094 79.632812 99.480469 79.785156 100.117188 79.832031 C 103.902344 80.074219 107.710938 80.289062 111.496094 80.261719 C 118.738281 79.929688 125.894531 80.566406 132.964844 82.167969 "/>
</g>
</g>
</svg>
